<svg width="311" height="65" viewBox="0 0 311 65" fill="none" xmlns="http://www.w3.org/2000/svg">
<path d="M0.584 50V3.92H10.824L26.44 22.544L41.992 3.92H52.296V50H42.312V19.088L26.44 38.032L10.504 19.152V50H0.584ZM68.919 50C67.255 50 65.719 49.5733 64.311 48.72C62.903 47.8667 61.7723 46.736 60.919 45.328C60.0657 43.92 59.639 42.384 59.639 40.72V22.16C59.639 20.496 60.0657 18.96 60.919 17.552C61.7723 16.144 62.903 15.0133 64.311 14.16C65.719 13.3067 67.255 12.88 68.919 12.88H87.991C89.6977 12.88 91.255 13.3067 92.663 14.16C94.071 15.0133 95.1803 16.144 95.991 17.552C96.8443 18.96 97.271 20.496 97.271 22.16V40.72C97.271 42.384 96.8443 43.92 95.991 45.328C95.1803 46.736 94.071 47.8667 92.663 48.72C91.255 49.5733 89.6977 50 87.991 50H68.919ZM69.431 40.208H87.479V22.672H69.431V40.208ZM113.232 50C111.568 50 110.032 49.5733 108.624 48.72C107.216 47.8667 106.085 46.736 105.232 45.328C104.378 43.92 103.952 42.384 103.952 40.72V22.16C103.952 20.496 104.378 18.96 105.232 17.552C106.085 16.144 107.216 15.0133 108.624 14.16C110.032 13.3067 111.568 12.88 113.232 12.88H141.52V22.672H113.744V40.208H141.584V50H113.232ZM146.831 50V0.719997H156.623V26.512H161.615L174.223 12.88H184.079V16.208L170.255 31.44L184.079 46.672V50H174.223L161.615 36.368H156.623V50H146.831ZM193.262 64.656V54.8H215.278V50H196.718C195.011 50 193.454 49.5733 192.046 48.72C190.638 47.8667 189.507 46.736 188.654 45.328C187.801 43.92 187.374 42.384 187.374 40.72V22.16C187.374 20.496 187.801 18.96 188.654 17.552C189.507 16.144 190.638 15.0133 192.046 14.16C193.454 13.3067 195.011 12.88 196.718 12.88H215.79C217.497 12.88 219.054 13.3067 220.462 14.16C221.87 15.0133 222.979 16.144 223.79 17.552C224.643 18.96 225.07 20.496 225.07 22.16V55.376C225.07 57.0827 224.643 58.64 223.79 60.048C222.979 61.456 221.87 62.5653 220.462 63.376C219.054 64.2293 217.497 64.656 215.79 64.656H193.262ZM197.166 40.208H215.278V22.672H197.166V40.208ZM239.544 50C237.88 50 236.344 49.5733 234.936 48.72C233.528 47.8667 232.397 46.736 231.544 45.328C230.691 43.92 230.264 42.384 230.264 40.72V22.16C230.264 20.496 230.691 18.96 231.544 17.552C232.397 16.144 233.528 15.0133 234.936 14.16C236.344 13.3067 237.88 12.88 239.544 12.88H258.616C260.323 12.88 261.88 13.3067 263.288 14.16C264.696 15.0133 265.805 16.144 266.616 17.552C267.469 18.96 267.896 20.496 267.896 22.16V36.368H240.056V40.208H267.896V50H239.544ZM240.056 27.792H258.104V22.672H240.056V27.792ZM282.294 50C280.63 50 279.094 49.5733 277.686 48.72C276.278 47.8667 275.147 46.736 274.294 45.328C273.441 43.92 273.014 42.384 273.014 40.72V22.16C273.014 20.496 273.441 18.96 274.294 17.552C275.147 16.144 276.278 15.0133 277.686 14.16C279.094 13.3067 280.63 12.88 282.294 12.88H301.366C303.073 12.88 304.63 13.3067 306.038 14.16C307.446 15.0133 308.555 16.144 309.366 17.552C310.219 18.96 310.646 20.496 310.646 22.16V36.368H282.806V40.208H310.646V50H282.294ZM282.806 27.792H300.854V22.672H282.806V27.792Z" fill="#173647"/>
</svg>
